<svg xmlns="http://www.w3.org/2000/svg" version="1.1" xmlns:xlink="http://www.w3.org/1999/xlink" width="128" height="128"><svg version="1.0" id="SvgjsSvg1057" xmlns="http://www.w3.org/2000/svg" xmlns:xlink="http://www.w3.org/1999/xlink" x="0px" y="0px" viewBox="0 0 128 128" style="enable-background:new 0 0 128 128;" xml:space="preserve">
<style type="text/css">
	.st0{fill:#FFE41D;}
	.st1{fill:#FFE421;}
	.st2{fill:#565656;}
</style>
<g>
	<g>
		<g>
			<path class="st0" d="M53.68,4.48c-0.3,0-0.55-0.25-0.55-0.55V2.05c0-0.3,0.25-0.55,0.55-0.55H68.4c0.3,0,0.55,0.25,0.55,0.55
				v1.88c0,0.3-0.25,0.55-0.55,0.55H53.68z"></path>
			<path class="st1" d="M53.68,0c-1.13,0-2.05,0.92-2.05,2.05v1.88c0,1.13,0.92,2.05,2.05,2.05H68.4c1.13,0,2.05-0.92,2.05-2.05
				V2.05C70.45,0.92,69.54,0,68.4,0L53.68,0L53.68,0z"></path>
		</g>
		<g>
			<path class="st0" d="M37.01,12.62c-0.3,0-0.55-0.25-0.55-0.55v-1.88c0-0.3,0.25-0.55,0.55-0.55h48.06c0.3,0,0.55,0.25,0.55,0.55
				v1.88c0,0.3-0.25,0.55-0.55,0.55H37.01z"></path>
			<path class="st1" d="M85.07,8.13H37.01c-1.13,0-2.05,0.92-2.05,2.05v1.88c0,1.13,0.92,2.05,2.05,2.05h48.06
				c1.13,0,2.05-0.92,2.05-2.05v-1.88C87.12,9.05,86.2,8.13,85.07,8.13L85.07,8.13z"></path>
		</g>
		<g>
			<path class="st0" d="M29.23,20.75c-0.3,0-0.55-0.25-0.55-0.55v-1.88c0-0.3,0.25-0.55,0.55-0.55h75.48c0.3,0,0.55,0.25,0.55,0.55
				v1.88c0,0.3-0.25,0.55-0.55,0.55H29.23z"></path>
			<path class="st1" d="M104.71,16.27H29.23c-1.13,0-2.05,0.92-2.05,2.05v1.88c0,1.13,0.92,2.05,2.05,2.05h75.48
				c1.13,0,2.05-0.92,2.05-2.05v-1.88C106.76,17.19,105.84,16.27,104.71,16.27L104.71,16.27z"></path>
		</g>
		<g>
			<path class="st0" d="M25.45,28.89c-0.3,0-0.55-0.25-0.55-0.55v-1.88c0-0.3,0.25-0.55,0.55-0.55h71.18c0.3,0,0.55,0.25,0.55,0.55
				v1.88c0,0.3-0.25,0.55-0.55,0.55H25.45z"></path>
			<path class="st1" d="M96.63,24.4H25.45c-1.13,0-2.05,0.92-2.05,2.05v1.88c0,1.13,0.92,2.05,2.05,2.05h71.18
				c1.13,0,2.05-0.92,2.05-2.05v-1.88C98.68,25.32,97.77,24.4,96.63,24.4L96.63,24.4z"></path>
		</g>
		<g>
			<path class="st0" d="M23.24,37.02c-0.3,0-0.55-0.25-0.55-0.55v-1.88c0-0.3,0.25-0.55,0.55-0.55h81.4c0.3,0,0.55,0.25,0.55,0.55
				v1.88c0,0.3-0.25,0.55-0.55,0.55H23.24z"></path>
			<path class="st1" d="M104.64,32.54h-81.4c-1.13,0-2.05,0.92-2.05,2.05v1.88c0,1.13,0.92,2.05,2.05,2.05h81.4
				c1.13,0,2.05-0.92,2.05-2.05v-1.88C106.69,33.46,105.77,32.54,104.64,32.54L104.64,32.54z"></path>
		</g>
		<g>
			<path class="st0" d="M23.24,45.16c-0.3,0-0.55-0.25-0.55-0.55v-1.88c0-0.3,0.25-0.55,0.55-0.55h73.33c0.3,0,0.55,0.25,0.55,0.55
				v1.88c0,0.3-0.25,0.55-0.55,0.55H23.24z"></path>
			<path class="st1" d="M96.58,40.67H23.25c-1.13,0-2.05,0.92-2.05,2.05v1.88c0,1.13,0.92,2.05,2.05,2.05h73.33
				c1.13,0,2.05-0.92,2.05-2.05v-1.88C98.63,41.59,97.71,40.67,96.58,40.67L96.58,40.67z"></path>
		</g>
		<g>
			<path class="st0" d="M26.59,53.29c-0.3,0-0.55-0.25-0.55-0.55v-1.88c0-0.3,0.25-0.55,0.55-0.55h78.17c0.3,0,0.55,0.25,0.55,0.55
				v1.88c0,0.3-0.25,0.55-0.55,0.55H26.59z"></path>
			<path class="st1" d="M104.76,48.81H26.59c-1.13,0-2.05,0.92-2.05,2.05v1.88c0,1.13,0.92,2.05,2.05,2.05h78.17
				c1.13,0,2.05-0.92,2.05-2.05v-1.88C106.81,49.72,105.89,48.81,104.76,48.81L104.76,48.81z"></path>
		</g>
		<g>
			<path class="st0" d="M32.41,61.43c-0.3,0-0.55-0.25-0.55-0.55v-1.88c0-0.3,0.25-0.55,0.55-0.55h52.36c0.3,0,0.55,0.25,0.55,0.55
				v1.88c0,0.3-0.25,0.55-0.55,0.55H32.41z"></path>
			<path class="st1" d="M84.77,56.94H32.41c-1.13,0-2.05,0.92-2.05,2.05v1.88c0,1.13,0.92,2.05,2.05,2.05h52.36
				c1.13,0,2.05-0.92,2.05-2.05v-1.88C86.82,57.86,85.9,56.94,84.77,56.94L84.77,56.94z"></path>
		</g>
		<g>
			<path class="st0" d="M37.81,69.56c-0.3,0-0.55-0.25-0.55-0.55v-1.88c0-0.3,0.25-0.55,0.55-0.55h58.81c0.3,0,0.55,0.25,0.55,0.55
				v1.88c0,0.3-0.25,0.55-0.55,0.55H37.81z"></path>
			<path class="st1" d="M96.62,65.08H37.81c-1.13,0-2.05,0.92-2.05,2.05v1.88c0,1.13,0.92,2.05,2.05,2.05h58.81
				c1.13,0,2.05-0.92,2.05-2.05v-1.88C98.67,65.99,97.75,65.08,96.62,65.08L96.62,65.08z"></path>
		</g>
		<g>
			<path class="st0" d="M41.72,77.69c-0.3,0-0.55-0.25-0.55-0.55v-1.88c0-0.3,0.25-0.55,0.55-0.55h39.46c0.3,0,0.55,0.25,0.55,0.55
				v1.88c0,0.3-0.25,0.55-0.55,0.55H41.72z"></path>
			<path class="st1" d="M81.18,73.21H41.72c-1.13,0-2.05,0.92-2.05,2.05v1.88c0,1.13,0.92,2.05,2.05,2.05h39.45
				c1.13,0,2.05-0.92,2.05-2.05v-1.88C83.23,74.13,82.31,73.21,81.18,73.21L81.18,73.21z"></path>
		</g>
		<g>
			<path class="st0" d="M43.31,85.83c-0.3,0-0.55-0.25-0.55-0.55V83.4c0-0.3,0.25-0.55,0.55-0.55h41.61c0.3,0,0.55,0.25,0.55,0.55
				v1.88c0,0.3-0.25,0.55-0.55,0.55H43.31z"></path>
			<path class="st1" d="M84.91,81.34H43.31c-1.13,0-2.05,0.92-2.05,2.05v1.88c0,1.13,0.92,2.05,2.05,2.05h41.61
				c1.13,0,2.05-0.92,2.05-2.05v-1.88C86.96,82.26,86.04,81.34,84.91,81.34L84.91,81.34z"></path>
		</g>
		<g>
			<path class="st0" d="M43.74,93.96c-0.3,0-0.55-0.25-0.55-0.55v-1.88c0-0.3,0.25-0.55,0.55-0.55h34.61c0.3,0,0.55,0.25,0.55,0.55
				v1.88c0,0.3-0.25,0.55-0.55,0.55H43.74z"></path>
			<path class="st1" d="M78.35,89.48H43.74c-1.13,0-2.05,0.92-2.05,2.05v1.88c0,1.13,0.92,2.05,2.05,2.05h34.62
				c1.13,0,2.05-0.92,2.05-2.05v-1.88C80.4,90.4,79.48,89.48,78.35,89.48L78.35,89.48z"></path>
		</g>
		<g>
			<path class="st2" d="M43.74,102.1c-0.3,0-0.55-0.25-0.55-0.55v-1.88c0-0.3,0.25-0.55,0.55-0.55h34.61c0.3,0,0.55,0.25,0.55,0.55
				v1.88c0,0.3-0.25,0.55-0.55,0.55H43.74z"></path>
			<path class="st2" d="M78.35,97.61H43.74c-1.13,0-2.05,0.92-2.05,2.05v1.88c0,1.13,0.92,2.05,2.05,2.05h34.62
				c1.13,0,2.05-0.92,2.05-2.05v-1.88C80.4,98.53,79.48,97.61,78.35,97.61L78.35,97.61z"></path>
		</g>
		<g>
			<path class="st2" d="M43.74,110.23c-0.3,0-0.55-0.25-0.55-0.55v-1.88c0-0.3,0.25-0.55,0.55-0.55h34.61c0.3,0,0.55,0.25,0.55,0.55
				v1.88c0,0.3-0.25,0.55-0.55,0.55H43.74z"></path>
			<path class="st2" d="M78.35,105.75H43.74c-1.13,0-2.05,0.92-2.05,2.05v1.88c0,1.13,0.92,2.05,2.05,2.05h34.62
				c1.13,0,2.05-0.92,2.05-2.05v-1.88C80.4,106.67,79.48,105.75,78.35,105.75L78.35,105.75z"></path>
		</g>
		<g>
			<path class="st2" d="M43.74,118.37c-0.3,0-0.55-0.25-0.55-0.55v-1.88c0-0.3,0.25-0.55,0.55-0.55h34.61c0.3,0,0.55,0.25,0.55,0.55
				v1.88c0,0.3-0.25,0.55-0.55,0.55H43.74z"></path>
			<path class="st2" d="M78.35,113.88H43.74c-1.13,0-2.05,0.92-2.05,2.05v1.88c0,1.13,0.92,2.05,2.05,2.05h34.62
				c1.13,0,2.05-0.92,2.05-2.05v-1.88C80.4,114.8,79.48,113.88,78.35,113.88L78.35,113.88z"></path>
		</g>
		<g>
			<path class="st2" d="M53.68,126.5c-0.3,0-0.55-0.25-0.55-0.55v-1.88c0-0.3,0.25-0.55,0.55-0.55H68.4c0.3,0,0.55,0.25,0.55,0.55
				v1.88c0,0.3-0.25,0.55-0.55,0.55H53.68z"></path>
			<path class="st2" d="M68.4,122.02H53.68c-1.13,0-2.05,0.92-2.05,2.05v1.88c0,1.13,0.92,2.05,2.05,2.05H68.4
				c1.13,0,2.05-0.92,2.05-2.05v-1.88C70.45,122.93,69.54,122.02,68.4,122.02L68.4,122.02z"></path>
		</g>
	</g>
</g>
</svg><style>@media (prefers-color-scheme: light) { :root { filter: none; } }
@media (prefers-color-scheme: dark) { :root { filter: none; } }
</style></svg>